REM DIRINDEX 1\8,1\2\11,1\3\12,1\3\14,1\5\15,1\5\16,1\6\17,1\6\18,1\4\19,1\4\20,1\4\21,1\4\22,1\7\23,1\7\24,1\7\25,1\2\9\26,1\2\9\27,1\2\10\28,1\2\10\29,1\2\10\30,1\2\10\31,1\2\10\32,1\3\13\33,1\3\13\34,1\3\13\35
REM DIRNAME folder01,folder02,folder03,folder04,folder05,folder06,folder07,folder08,folder09,folder10,folder11,folder12,folder13,folder14,folder15,folder16,folder17,folder18,folder19,folder20,folder21,folder22,folder23,folder24,folder25,folder26,folder27,folder28,folder29,folder30,folder31,folder32,folder33,folder34,folder35
TITLE ""
FILE "2-53 053_UNIT5_SET1.mp3" MP3
  TRACK 01 AUDIO
    TITLE "11:cjc123_5572"
    INDEX 01 00:00:00
  TRACK 02 AUDIO
    TITLE "0:"
    INDEX 01 00:02:51
  TRACK 03 AUDIO
    TITLE "28:cjc123_5573"
    INDEX 01 00:03:21
  TRACK 04 AUDIO
    TITLE "0:"
    INDEX 01 00:04:25
  TRACK 05 AUDIO
    TITLE "29:cjc123_5574"
    INDEX 01 00:04:40
  TRACK 06 AUDIO
    TITLE "0:"
    INDEX 01 00:06:02
  TRACK 07 AUDIO
    TITLE "30:cjc123_5575"
    INDEX 01 00:06:10
  TRACK 08 AUDIO
    TITLE "0:"
    INDEX 01 00:07:09
  TRACK 09 AUDIO
    TITLE "31:cjc123_5576"
    INDEX 01 00:07:60
  TRACK 10 AUDIO
    TITLE "0:"
    INDEX 01 00:12:63
  TRACK 11 AUDIO
    TITLE "32:cjc123_5577"
    INDEX 01 00:13:30
  TRACK 12 AUDIO
    TITLE "0:"
    INDEX 01 00:18:60
  TRACK 13 AUDIO
    TITLE "28:cjc123_5578"
    INDEX 01 00:19:20
  TRACK 14 AUDIO
    TITLE "0:"
    INDEX 01 00:21:21
  TRACK 15 AUDIO
    TITLE "29:cjc123_5579"
    INDEX 01 00:21:43
  TRACK 16 AUDIO
    TITLE "0:"
    INDEX 01 00:23:71
  TRACK 17 AUDIO
    TITLE "30:cjc123_5580"
    INDEX 01 00:24:06
  TRACK 18 AUDIO
    TITLE "0:"
    INDEX 01 00:25:68
  TRACK 19 AUDIO
    TITLE "31:cjc123_5581"
    INDEX 01 00:26:66
  TRACK 20 AUDIO
    TITLE "0:"
    INDEX 01 00:32:23
  TRACK 21 AUDIO
    TITLE "32:cjc123_5582"
    INDEX 01 00:32:52
  TRACK 22 AUDIO
    TITLE "0:"
    INDEX 01 00:38:06
  TRACK 23 AUDIO
    TITLE "28:cjc123_5583"
    INDEX 01 00:38:35
  TRACK 24 AUDIO
    TITLE "0:"
    INDEX 01 00:39:39
  TRACK 25 AUDIO
    TITLE "29:cjc123_5584"
    INDEX 01 00:39:54
  TRACK 26 AUDIO
    TITLE "0:"
    INDEX 01 00:41:08
  TRACK 27 AUDIO
    TITLE "30:cjc123_5585"
    INDEX 01 00:41:14
  TRACK 28 AUDIO
    TITLE "0:"
    INDEX 01 00:42:18
  TRACK 29 AUDIO
    TITLE "31:cjc123_5586"
    INDEX 01 00:42:68
  TRACK 30 AUDIO
    TITLE "0:"
    INDEX 01 00:47:34
  TRACK 31 AUDIO
    TITLE "32:cjc123_5587"
    INDEX 01 00:48:16
  TRACK 32 AUDIO
    TITLE "0:"
    INDEX 01 00:52:65
  TRACK 33 AUDIO
    TITLE "28:cjc123_5588"
    INDEX 01 00:53:23
  TRACK 34 AUDIO
    TITLE "0:"
    INDEX 01 00:54:29
  TRACK 35 AUDIO
    TITLE "29:cjc123_5589"
    INDEX 01 00:54:40
  TRACK 36 AUDIO
    TITLE "0:"
    INDEX 01 00:56:20
  TRACK 37 AUDIO
    TITLE "30:cjc123_5590"
    INDEX 01 00:56:29
  TRACK 38 AUDIO
    TITLE "0:"
    INDEX 01 00:57:35
  TRACK 39 AUDIO
    TITLE "31:cjc123_5591"
    INDEX 01 00:58:11
  TRACK 40 AUDIO
    TITLE "0:"
    INDEX 01 01:03:59
  TRACK 41 AUDIO
    TITLE "32:cjc123_5592"
    INDEX 01 01:04:37
  TRACK 42 AUDIO
    TITLE "0:"
    INDEX 01 01:11:05
  TRACK 43 AUDIO
    TITLE "28:cjc123_5593"
    INDEX 01 01:11:47
  TRACK 44 AUDIO
    TITLE "0:"
    INDEX 01 01:12:60
  TRACK 45 AUDIO
    TITLE "29:cjc123_5594"
    INDEX 01 01:12:68
  TRACK 46 AUDIO
    TITLE "0:"
    INDEX 01 01:14:17
  TRACK 47 AUDIO
    TITLE "30:cjc123_5595"
    INDEX 01 01:14:31
  TRACK 48 AUDIO
    TITLE "0:"
    INDEX 01 01:15:25
  TRACK 49 AUDIO
    TITLE "31:cjc123_5596"
    INDEX 01 01:16:07
  TRACK 50 AUDIO
    TITLE "0:"
    INDEX 01 01:21:55
  TRACK 51 AUDIO
    TITLE "32:cjc123_5597"
    INDEX 01 01:22:17
  TRACK 52 AUDIO
    TITLE "0:"
    INDEX 01 01:28:04
  TRACK 53 AUDIO
    TITLE "28:cjc123_5598"
    INDEX 01 01:28:51
  TRACK 54 AUDIO
    TITLE "0:"
    INDEX 01 01:29:58
  TRACK 55 AUDIO
    TITLE "29:cjc123_5599"
    INDEX 01 01:29:68
  TRACK 56 AUDIO
    TITLE "0:"
    INDEX 01 01:31:28
  TRACK 57 AUDIO
    TITLE "30:cjc123_5600"
    INDEX 01 01:31:39
  TRACK 58 AUDIO
    TITLE "0:"
    INDEX 01 01:32:31
  TRACK 59 AUDIO
    TITLE "31:cjc123_5601"
    INDEX 01 01:33:11
  TRACK 60 AUDIO
    TITLE "0:"
    INDEX 01 01:38:10
  TRACK 61 AUDIO
    TITLE "32:cjc123_5602"
    INDEX 01 01:39:00
  TRACK 62 AUDIO
    TITLE "0:"
    INDEX 01 01:44:19
  TRACK 63 AUDIO
    TITLE "28:cjc123_5603"
    INDEX 01 01:44:48
  TRACK 64 AUDIO
    TITLE "0:"
    INDEX 01 01:45:53
  TRACK 65 AUDIO
    TITLE "29:cjc123_5604"
    INDEX 01 01:45:69
  TRACK 66 AUDIO
    TITLE "0:"
    INDEX 01 01:47:25
  TRACK 67 AUDIO
    TITLE "30:cjc123_5605"
    INDEX 01 01:47:29
  TRACK 68 AUDIO
    TITLE "0:"
    INDEX 01 01:48:30
  TRACK 69 AUDIO
    TITLE "31:cjc123_5606"
    INDEX 01 01:49:39
  TRACK 70 AUDIO
    TITLE "0:"
    INDEX 01 01:55:01
  TRACK 71 AUDIO
    TITLE "32:cjc123_5607"
    INDEX 01 01:55:32
  TRACK 72 AUDIO
    TITLE "0:"
    INDEX 01 02:00:41
  TRACK 73 AUDIO
    TITLE "28:cjc123_5608"
    INDEX 01 02:01:17
  TRACK 74 AUDIO
    TITLE "0:"
    INDEX 01 02:02:22
  TRACK 75 AUDIO
    TITLE "29:cjc123_5609"
    INDEX 01 02:02:30
  TRACK 76 AUDIO
    TITLE "0:"
    INDEX 01 02:04:06
  TRACK 77 AUDIO
    TITLE "30:cjc123_5610"
    INDEX 01 02:04:13
  TRACK 78 AUDIO
    TITLE "0:"
    INDEX 01 02:05:13
  TRACK 79 AUDIO
    TITLE "31:cjc123_5611"
    INDEX 01 02:06:16
  TRACK 80 AUDIO
    TITLE "0:"
    INDEX 01 02:11:47
  TRACK 81 AUDIO
    TITLE "32:cjc123_5612"
    INDEX 01 02:11:70
  TRACK 82 AUDIO
    TITLE "0:"
    INDEX 01 02:17:63
  TRACK 83 AUDIO
    TITLE "28:cjc123_5613"
    INDEX 01 02:18:10
  TRACK 84 AUDIO
    TITLE "0:"
    INDEX 01 02:19:13
  TRACK 85 AUDIO
    TITLE "29:cjc123_5614"
    INDEX 01 02:19:23
  TRACK 86 AUDIO
    TITLE "0:"
    INDEX 01 02:21:00
  TRACK 87 AUDIO
    TITLE "30:cjc123_5615"
    INDEX 01 02:21:12
  TRACK 88 AUDIO
    TITLE "0:"
    INDEX 01 02:22:09
  TRACK 89 AUDIO
    TITLE "31:cjc123_5616"
    INDEX 01 02:22:62
  TRACK 90 AUDIO
    TITLE "0:"
    INDEX 01 02:28:43
  TRACK 91 AUDIO
    TITLE "32:cjc123_5617"
    INDEX 01 02:29:00
  TRACK 92 AUDIO
    TITLE "0:"
    INDEX 01 02:34:32
  TRACK 93 AUDIO
    TITLE "28:cjc123_5618"
    INDEX 01 02:34:71
  TRACK 94 AUDIO
    TITLE "0:"
    INDEX 01 02:36:17
  TRACK 95 AUDIO
    TITLE "29:cjc123_5619"
    INDEX 01 02:36:35
  TRACK 96 AUDIO
    TITLE "0:"
    INDEX 01 02:38:10
  TRACK 97 AUDIO
    TITLE "30:cjc123_5620"
    INDEX 01 02:38:26
  TRACK 98 AUDIO
    TITLE "0:"
    INDEX 01 02:39:37
  TRACK 99 AUDIO
    TITLE "31:cjc123_5621"
    INDEX 01 02:40:13
  TRACK 100 AUDIO
    TITLE "0:"
    INDEX 01 02:45:30
  TRACK 101 AUDIO
    TITLE "32:cjc123_5622"
    INDEX 01 02:45:71
  TRACK 102 AUDIO
    TITLE "0:"
    INDEX 01 02:50:08
  TRACK 103 AUDIO
    TITLE "28:cjc123_5623"
    INDEX 01 02:50:57
  TRACK 104 AUDIO
    TITLE "0:"
    INDEX 01 02:51:66
  TRACK 105 AUDIO
    TITLE "29:cjc123_5624"
    INDEX 01 02:52:09
  TRACK 106 AUDIO
    TITLE "0:"
    INDEX 01 02:53:18
  TRACK 107 AUDIO
    TITLE "30:cjc123_5625"
    INDEX 01 02:53:26
  TRACK 108 AUDIO
    TITLE "0:"
    INDEX 01 02:54:35
  TRACK 109 AUDIO
    TITLE "31:cjc123_5626"
    INDEX 01 02:55:05
  TRACK 110 AUDIO
    TITLE "0:"
    INDEX 01 03:01:13
  TRACK 111 AUDIO
    TITLE "32:cjc123_5627"
    INDEX 01 03:01:43
  TRACK 112 AUDIO
    TITLE "0:"
    INDEX 01 03:08:08
  TRACK 113 AUDIO
    TITLE "28:cjc123_5628"
    INDEX 01 03:08:49
  TRACK 114 AUDIO
    TITLE "0:"
    INDEX 01 03:09:62
  TRACK 115 AUDIO
    TITLE "29:cjc123_5629"
    INDEX 01 03:10:06
  TRACK 116 AUDIO
    TITLE "0:"
    INDEX 01 03:11:31
  TRACK 117 AUDIO
    TITLE "30:cjc123_5630"
    INDEX 01 03:11:37
  TRACK 118 AUDIO
    TITLE "0:"
    INDEX 01 03:12:52
  TRACK 119 AUDIO
    TITLE "31:cjc123_5631"
    INDEX 01 03:13:28
  TRACK 120 AUDIO
    TITLE "0:"
    INDEX 01 03:17:73
  TRACK 121 AUDIO
    TITLE "32:cjc123_5632"
    INDEX 01 03:18:39
  TRACK 122 AUDIO
    TITLE "0:"
    INDEX 01 03:22:00
  TRACK 123 AUDIO
    TITLE "28:cjc123_5633"
    INDEX 01 03:22:45
  TRACK 124 AUDIO
    TITLE "0:"
    INDEX 01 03:23:62
  TRACK 125 AUDIO
    TITLE "29:cjc123_5634"
    INDEX 01 03:23:70
  TRACK 126 AUDIO
    TITLE "0:"
    INDEX 01 03:25:22
  TRACK 127 AUDIO
    TITLE "30:cjc123_5635"
    INDEX 01 03:25:33
  TRACK 128 AUDIO
    TITLE "0:"
    INDEX 01 03:26:45
  TRACK 129 AUDIO
    TITLE "31:cjc123_5636"
    INDEX 01 03:27:23
  TRACK 130 AUDIO
    TITLE "0:"
    INDEX 01 03:33:17
  TRACK 131 AUDIO
    TITLE "32:cjc123_5637"
    INDEX 01 03:33:53
  TRACK 132 AUDIO
    TITLE "0:"
    INDEX 01 03:39:26
  TRACK 133 AUDIO
    TITLE "28:cjc123_5638"
    INDEX 01 03:39:71
  TRACK 134 AUDIO
    TITLE "0:"
    INDEX 01 03:41:07
  TRACK 135 AUDIO
    TITLE "29:cjc123_5639"
    INDEX 01 03:41:23
  TRACK 136 AUDIO
    TITLE "0:"
    INDEX 01 03:42:67
  TRACK 137 AUDIO
    TITLE "30:cjc123_5640"
    INDEX 01 03:43:02
  TRACK 138 AUDIO
    TITLE "0:"
    INDEX 01 03:44:07
  TRACK 139 AUDIO
    TITLE "31:cjc123_5641"
    INDEX 01 03:44:60
  TRACK 140 AUDIO
    TITLE "0:"
    INDEX 01 03:50:24
  TRACK 141 AUDIO
    TITLE "32:cjc123_5642"
    INDEX 01 03:51:00
  TRACK 142 AUDIO
    TITLE "0:"
    INDEX 01 03:56:63
  TRACK 143 AUDIO
    TITLE "28:cjc123_5643"
    INDEX 01 03:57:32
  TRACK 144 AUDIO
    TITLE "0:"
    INDEX 01 03:58:41
  TRACK 145 AUDIO
    TITLE "29:cjc123_5644"
    INDEX 01 03:58:47
  TRACK 146 AUDIO
    TITLE "0:"
    INDEX 01 04:00:08
  TRACK 147 AUDIO
    TITLE "30:cjc123_5645"
    INDEX 01 04:00:18
  TRACK 148 AUDIO
    TITLE "0:"
    INDEX 01 04:01:27
  TRACK 149 AUDIO
    TITLE "31:cjc123_5646"
    INDEX 01 04:02:01
  TRACK 150 AUDIO
    TITLE "0:"
    INDEX 01 04:06:09
  TRACK 151 AUDIO
    TITLE "32:cjc123_5647"
    INDEX 01 04:06:56
  TRACK 152 AUDIO
    TITLE "0:"
    INDEX 01 04:11:12
